<svg width="135" height="200" viewBox="0 0 135 200" fill="none" xmlns="http://www.w3.org/2000/svg">
<g style="mix-blend-mode:multiply" opacity="0.1">
<path d="M-6.21988 69.4692L-16.6132 54.0642C-16.646 54.0137 -16.6676 53.9517 -16.6762 53.8838C-16.6848 53.816 -16.6799 53.7444 -16.6622 53.6757L-10.6926 32.5395C-10.6732 32.4694 -10.6403 32.4053 -10.5974 32.3542C-10.5544 32.3031 -10.5031 32.2667 -10.4488 32.2489L5.91423 26.5026C5.96841 26.4851 6.02353 26.4856 6.07449 26.504C6.12544 26.5224 6.17059 26.5581 6.20572 26.6078L16.5963 42.0124C16.6298 42.0622 16.6519 42.1242 16.6605 42.1923C16.6691 42.2603 16.6639 42.3322 16.6453 42.4008L10.6758 63.5371C10.6563 63.6072 10.6234 63.6712 10.5805 63.7223C10.5376 63.7735 10.4862 63.8099 10.4319 63.8276L-5.92898 69.5629C-5.97366 69.5797 -6.01949 69.584 -6.06339 69.5756C-6.10729 69.5672 -6.14824 69.5462 -6.18355 69.5141C-6.1977 69.5 -6.20844 69.4828 -6.21988 69.4692ZM15.9964 42.4318L5.83075 27.3622L-10.1741 32.9688L-16.0133 53.6448L-5.84762 68.7143L10.1572 63.1078L15.9964 42.4318Z" fill="url(#paint0_radial_532_3)"/>
<path d="M-5.12786 71.2708L-17.3392 56.3851C-17.3772 56.3376 -17.4039 56.2763 -17.4168 56.2074C-17.4297 56.1384 -17.4282 56.0641 -17.4126 55.9919L-12.5169 33.0766C-12.5032 33.0017 -12.4745 32.9308 -12.434 32.8717C-12.3934 32.8127 -12.3426 32.7677 -12.287 32.7416L4.81246 24.7372C4.86497 24.7099 4.92048 24.7009 4.97331 24.711C5.02613 24.7212 5.07436 24.7501 5.11307 24.7948L17.3237 39.6842C17.3617 39.7317 17.3884 39.793 17.4013 39.862C17.4142 39.9309 17.4127 40.0052 17.3971 40.0774L12.5014 62.9927C12.4883 63.068 12.4598 63.1392 12.4192 63.1984C12.3785 63.2576 12.3274 63.3024 12.2715 63.3277L-4.83288 71.3578C-4.88035 71.3786 -4.92964 71.3848 -4.97672 71.3758C-5.02379 71.3667 -5.06731 71.3428 -5.10369 71.3058L-5.12786 71.2708ZM16.7471 40.1725L4.78595 25.5925L-11.9696 33.4583L-16.7613 55.9046L-4.80285 70.4841L11.9527 62.6183L16.7471 40.1725Z" fill="url(#paint1_radial_532_3)"/>
<path d="M-18.0662 58.5351L-14.4473 33.8889C-14.4375 33.8164 -14.4133 33.7465 -14.3771 33.6867C-14.3409 33.6269 -14.2941 33.5794 -14.2418 33.5493L3.50298 23.0151C3.55479 22.9853 3.61008 22.973 3.66349 22.9792C3.7169 22.9855 3.7666 23.0102 3.80779 23.0509L17.9276 37.1655C17.9692 37.2061 18.0004 37.262 18.018 37.3274C18.0356 37.3928 18.0389 37.4653 18.0276 37.5372L14.4087 62.1834C14.3989 62.256 14.3746 62.3259 14.3384 62.3857C14.3022 62.4455 14.2555 62.4929 14.2032 62.5231L-3.5416 73.0572C-3.59391 73.0869 -3.64964 73.0991 -3.70347 73.0928C-3.7573 73.0865 -3.80745 73.0618 -3.84913 73.021L-17.9689 58.9063C-18.0094 58.8648 -18.0397 58.8087 -18.0568 58.7435C-18.0738 58.6784 -18.0771 58.6065 -18.0662 58.5351ZM13.827 61.8785L17.377 37.7081L3.52872 23.8616L-13.8683 34.1933L-17.4157 58.3642L-3.56194 72.2118L13.827 61.8785Z" fill="url(#paint2_radial_532_3)"/>
<path d="M-18.5582 61.276L-16.4289 34.9681C-16.4209 34.8981 -16.3999 34.83 -16.3678 34.7699C-16.3356 34.7098 -16.2934 34.6598 -16.245 34.6243L1.99302 21.3873C2.04338 21.3504 2.09881 21.3308 2.15361 21.3307C2.20842 21.3306 2.26061 21.3498 2.30484 21.3864L18.4134 34.4573C18.4572 34.4942 18.4917 34.5464 18.5136 34.6091C18.5355 34.6717 18.5441 34.7426 18.5386 34.8149L16.4106 61.1156C16.4034 61.1857 16.3827 61.2543 16.3505 61.3146C16.3183 61.3748 16.2756 61.4247 16.2267 61.4594L-2.01125 74.6964C-2.06161 74.7333 -2.11703 74.7528 -2.17183 74.7529C-2.22664 74.7531 -2.27885 74.7339 -2.32308 74.6972L-18.4331 61.6336L-18.4575 61.6289C-18.4962 61.5891 -18.5257 61.536 -18.5433 61.4744C-18.5609 61.4128 -18.566 61.3446 -18.5582 61.276ZM15.8082 60.8749L17.8891 35.0391L2.08335 22.2044L-15.8393 35.2176L-17.9311 61.0514L-2.11451 73.8881L15.8082 60.8749Z" fill="url(#paint3_radial_532_3)"/>
<path d="M-18.9024 64.197L-18.4814 36.3294C-18.4808 36.2572 -18.4655 36.1844 -18.437 36.1186C-18.4086 36.0527 -18.3681 35.9961 -18.3197 35.9548L0.265721 19.8088C0.314043 19.7674 0.368362 19.7424 0.423247 19.7363C0.478133 19.7302 0.531647 19.7432 0.578437 19.774L18.7408 31.5066C18.7884 31.5358 18.8277 31.5824 18.8544 31.6416C18.8811 31.7008 18.8943 31.7703 18.8925 31.8427L18.4716 59.7103C18.4709 59.7825 18.4556 59.8553 18.4272 59.9212C18.3987 59.987 18.3582 60.0436 18.3099 60.0849L-0.275572 76.2309C-0.323808 76.2726 -0.378181 76.2978 -0.433123 76.3039C-0.488066 76.31 -0.541617 76.2968 -0.588305 76.2657L-18.7507 64.5332C-18.7666 64.5242 -18.7813 64.5125 -18.7945 64.4982C-18.8297 64.4647 -18.8577 64.4203 -18.8764 64.3681C-18.895 64.3159 -18.9039 64.2574 -18.9024 64.197ZM17.8468 59.5715L18.2613 32.1765L0.406108 20.6431L-17.8637 36.5048L-18.2782 63.8998L-0.420269 75.4337L17.8468 59.5715Z" fill="url(#paint4_radial_532_3)"/>
<path d="M-19.069 67.334L-20.5918 38.0359C-20.5959 37.9647 -20.5852 37.8913 -20.5608 37.8233C-20.5364 37.7552 -20.4992 37.6951 -20.4531 37.6493L-1.70416 18.4263C-1.65865 18.3794 -1.60584 18.348 -1.55111 18.3352C-1.49637 18.3224 -1.44166 18.3287 -1.39254 18.3534L18.8765 28.428C18.9257 28.4521 18.9676 28.4938 18.998 28.5489C19.0284 28.604 19.0461 28.6706 19.0494 28.7417L20.5695 58.0393C20.5736 58.1104 20.5629 58.1839 20.5384 58.2519C20.514 58.3199 20.4768 58.38 20.4307 58.4258L1.68184 77.6488C1.63633 77.6957 1.58353 77.7272 1.52879 77.74C1.47405 77.7528 1.41934 77.7465 1.37022 77.7217L-18.8988 67.6471C-18.9235 67.6361 -18.9459 67.619 -18.9649 67.5966C-19.0261 67.5345 -19.0635 67.4402 -19.069 67.334ZM19.9376 57.9522L18.4476 29.1266L-1.49838 19.2126L-19.9491 38.1251L-18.4591 66.9506L1.48689 76.8647L19.9376 57.9522Z" fill="url(#paint5_radial_532_3)"/>
<path d="M-19.0223 70.6181L-22.7219 40.0647C-22.7291 39.9947 -22.7225 39.9214 -22.7027 39.8517C-22.683 39.7819 -22.6507 39.7179 -22.6088 39.6656L-3.90207 17.1935C-3.86028 17.1434 -3.81056 17.1071 -3.7577 17.088C-3.70483 17.0689 -3.65064 17.0677 -3.60039 17.0846L18.8018 25.1727C18.8526 25.1917 18.8972 25.2286 18.9313 25.2796C18.9653 25.3307 18.9876 25.3943 18.9958 25.4639L22.6954 56.0173C22.7026 56.0873 22.6961 56.1606 22.6763 56.2304C22.6565 56.3001 22.6242 56.3641 22.5824 56.4164L3.87421 78.8958C3.83242 78.9459 3.78269 78.9823 3.72983 79.0014C3.67697 79.0204 3.62278 79.0216 3.57254 79.0047L-18.8297 70.9166C-18.8626 70.9021 -18.8937 70.8822 -18.9221 70.8571C-18.9782 70.7999 -19.0139 70.7147 -19.0223 70.6181ZM22.0618 55.983L18.4196 25.8917L-3.64044 17.9374L-22.0678 40.0802L-18.4256 70.1715L3.63444 78.1258L22.0618 55.983Z" fill="url(#paint6_radial_532_3)"/>
<path d="M-18.7462 74.0826L-24.8638 42.4778C-24.8786 42.4111 -24.8793 42.3384 -24.8656 42.2671C-24.8519 42.1958 -24.8244 42.1284 -24.786 42.072L-6.35483 16.1771C-6.31448 16.121 -6.26477 16.0784 -6.21069 16.0535C-6.15662 16.0286 -6.1001 16.0223 -6.04684 16.0353L18.5039 21.7495C18.5595 21.7592 18.6103 21.7893 18.6507 21.8365C18.6912 21.8837 18.7197 21.9462 18.7333 22.0171L24.8509 53.6219C24.8656 53.6893 24.8661 53.7626 24.8523 53.8345C24.8385 53.9064 24.8109 53.9743 24.7724 54.0314L6.34195 79.9226C6.3016 79.9787 6.25188 80.0214 6.19781 80.0463C6.14374 80.0712 6.08722 80.0774 6.03396 80.0644L-18.5168 74.3502C-18.5601 74.338 -18.6004 74.3148 -18.6356 74.282C-18.6898 74.2362 -18.7287 74.1661 -18.7462 74.0826ZM24.1964 53.6821L18.1647 22.5221L-6.02591 16.8922L-24.1984 42.4197L-18.1668 73.5797L6.02386 79.2096L24.1964 53.6821Z" fill="url(#paint7_radial_532_3)"/>
<path d="M-18.2018 77.6555L-26.981 45.2444C-26.9991 45.1788 -27.0031 45.1061 -26.9926 45.0335C-26.9822 44.961 -26.9576 44.8912 -26.9215 44.8313L-9.02343 15.3923C-8.98782 15.3325 -8.94166 15.2847 -8.88982 15.254C-8.83797 15.2233 -8.78236 15.2107 -8.72879 15.2176L17.9376 18.1876C17.9918 18.1924 18.0423 18.2168 18.0838 18.2581C18.1254 18.2995 18.1563 18.3562 18.1734 18.4224L26.9568 50.8115C26.9748 50.8771 26.9788 50.9499 26.9684 51.0225C26.9579 51.095 26.9334 51.1647 26.8972 51.2246L8.99917 80.6636C8.96355 80.7234 8.9174 80.7712 8.86555 80.802C8.81371 80.8327 8.75808 80.8453 8.70452 80.8383L-17.9626 77.872C-18.0167 77.8656 -18.067 77.8402 -18.1085 77.7985C-18.1483 77.762 -18.1802 77.7132 -18.2018 77.6555ZM26.3145 50.9688L17.6532 18.9822L-8.67245 16.051L-26.3192 45.1023L-17.6579 77.0889L8.66775 80.0201L26.3145 50.9688Z" fill="url(#paint8_radial_532_3)"/>
<path d="M-17.3673 81.3408L-29.0512 48.3953C-29.0738 48.3333 -29.0826 48.2625 -29.0766 48.1902C-29.0707 48.118 -29.0502 48.0471 -29.0174 47.9848L-11.9417 14.8703C-11.9092 14.8071 -11.8655 14.7544 -11.8151 14.7175C-11.7646 14.6807 -11.7092 14.6609 -11.6543 14.6602L17.1052 14.4912C17.1577 14.4924 17.2076 14.5116 17.25 14.5469C17.2924 14.5823 17.3259 14.6326 17.3473 14.6931L29.0346 47.6203C29.0571 47.6831 29.0657 47.7545 29.0597 47.8273C29.0536 47.9001 29.0331 47.9716 29.0001 48.0345L11.9245 81.1489C11.8922 81.2112 11.849 81.2631 11.7992 81.2994C11.7494 81.3357 11.6947 81.3553 11.6405 81.356L-17.1217 81.5244C-17.1853 81.5266 -17.2455 81.5018 -17.2935 81.4536C-17.3246 81.4244 -17.3498 81.386 -17.3673 81.3408ZM28.3938 47.8727L16.8522 15.3562L-11.5392 15.5238L-28.3999 48.2056L-16.8583 80.7221L11.5467 80.5571L28.3938 47.8727Z" fill="url(#paint9_radial_532_3)"/>
<path d="M-16.214 85.1066L-31.0531 52.0106C-31.0803 51.9517 -31.0941 51.8823 -31.093 51.8099C-31.0919 51.7374 -31.0761 51.6644 -31.0471 51.5986L-15.1114 14.7515C-15.0833 14.686 -15.0432 14.6296 -14.9953 14.5882C-14.9473 14.5467 -14.8933 14.5217 -14.8387 14.5157L15.9189 10.7954C15.9737 10.7889 16.0273 10.8014 16.0742 10.8317C16.1211 10.862 16.1597 10.909 16.1863 10.968L31.0361 44.0812C31.0633 44.1401 31.0771 44.2094 31.076 44.2819C31.0749 44.3544 31.0591 44.4274 31.0301 44.4932L15.0931 81.3324C15.065 81.398 15.0249 81.4544 14.977 81.4958C14.9291 81.5372 14.875 81.5622 14.8204 81.5682L-15.9372 85.2885C-16.0105 85.2972 -16.0811 85.273 -16.1374 85.2198C-16.1686 85.1895 -16.1946 85.1511 -16.214 85.1066ZM30.4005 44.3648L15.7372 11.64L-14.6717 15.3135L-30.4181 51.7155L-15.7548 84.4403L14.6541 80.7668L30.4005 44.3648Z" fill="url(#paint10_radial_532_3)"/>
<path d="M-14.7152 88.9153L-32.9354 55.9972C-32.9658 55.9418 -32.9836 55.8752 -32.9872 55.804C-32.9908 55.7328 -32.98 55.6596 -32.9559 55.5915L-18.5105 14.9938C-18.4866 14.9258 -18.4501 14.8654 -18.4046 14.8188C-18.3592 14.7722 -18.3065 14.7411 -18.2519 14.7288L14.4186 7.0238C14.4731 7.01059 14.5276 7.01631 14.5767 7.04037C14.6259 7.06444 14.6678 7.10601 14.6984 7.16088L32.9267 40.0806C32.957 40.136 32.9749 40.2026 32.9785 40.2737C32.9821 40.3449 32.9712 40.4182 32.9471 40.4863L18.4989 81.0986C18.4751 81.1666 18.4385 81.2271 18.3931 81.2736C18.3476 81.3202 18.2949 81.3512 18.2403 81.3636L-14.428 89.0576C-14.5105 89.075 -14.5912 89.05 -14.6533 88.9879C-14.678 88.9701 -14.699 88.9454 -14.7152 88.9153ZM32.2981 40.4301L14.2803 7.8767L-18.0227 15.4665L-32.3121 55.6315L-14.2978 88.2032L18.0107 80.5993L32.2981 40.4301Z" fill="url(#paint11_radial_532_3)"/>
<path d="M-12.8321 92.7261L-34.6673 60.4147C-34.7008 60.3648 -34.7229 60.3028 -34.7315 60.2348C-34.7401 60.1667 -34.7349 60.0949 -34.7163 60.0262L-22.1264 15.6346C-22.1065 15.5642 -22.0734 15.4999 -22.0305 15.4483C-21.9876 15.3966 -21.9362 15.3594 -21.8818 15.3403L12.5373 3.24761C12.5911 3.22813 12.6463 3.22757 12.697 3.24598C12.7478 3.26439 12.7924 3.3011 12.8261 3.35229L34.6525 35.6507C34.6859 35.7009 34.7081 35.7628 34.7172 35.8308C34.7262 35.8988 34.7218 35.9706 34.7043 36.0397L22.0959 80.4392C22.0761 80.5096 22.043 80.5738 22.0001 80.6255C21.9571 80.6771 21.9058 80.7144 21.8514 80.7334L-12.5677 92.8261C-12.6124 92.8439 -12.6584 92.8487 -12.7024 92.8403C-12.7464 92.8318 -12.7874 92.8103 -12.8223 92.7773C-12.8267 92.7608 -12.83 92.7437 -12.8321 92.7261ZM34.0526 36.0701L12.4546 4.10358L-21.6072 16.0753L-34.0722 60.0057L-12.4741 91.9723L21.5904 80.001L34.0526 36.0701Z" fill="url(#paint12_radial_532_3)"/>
<path d="M-10.574 96.499L-36.2083 65.2859C-36.247 65.2391 -36.2742 65.1779 -36.2872 65.1087C-36.3001 65.0396 -36.2982 64.9649 -36.2817 64.8927L-25.942 16.7602C-25.9289 16.6854 -25.9007 16.6145 -25.8607 16.5554C-25.8206 16.4962 -25.7701 16.451 -25.7147 16.4247L10.2571 -0.483729C10.3097 -0.509846 10.365 -0.518264 10.4177 -0.508161C10.4703 -0.498059 10.5186 -0.46978 10.5577 -0.426063L36.196 30.7955C36.2348 30.8422 36.262 30.9034 36.2749 30.9726C36.2879 31.0418 36.286 31.1164 36.2694 31.1886L25.9317 79.3253C25.9159 79.396 25.8867 79.462 25.8471 79.5169C25.8076 79.5718 25.7589 79.6137 25.706 79.6384L-10.2734 96.5567C-10.3209 96.5767 -10.37 96.5824 -10.417 96.5734C-10.4639 96.5644 -10.5075 96.5409 -10.5442 96.5047C-10.5442 96.5047 -10.5659 96.5006 -10.574 96.499ZM35.6309 31.2822L10.2198 0.369591L-25.4001 17.1408L-35.6384 64.8038L-10.2476 95.705L25.3831 78.9358L35.6309 31.2822Z" fill="url(#paint13_radial_532_3)"/>
<path d="M-37.6254 70.1995L-29.9636 18.4183C-29.9527 18.3462 -29.9281 18.277 -29.892 18.2174C-29.856 18.1579 -29.8098 18.1101 -29.7581 18.0787L7.55407 -4.11833C7.60588 -4.14812 7.66117 -4.1605 7.71458 -4.15424C7.76799 -4.14798 7.81769 -4.12329 7.85888 -4.0826L37.512 25.4869C37.553 25.5289 37.5837 25.5856 37.6011 25.6514C37.6185 25.7173 37.622 25.7899 37.6113 25.8623L29.9495 77.6434C29.9386 77.7155 29.914 77.7847 29.8779 77.8443C29.8419 77.9038 29.7957 77.9516 29.744 77.983L-7.56814 100.18C-7.61984 100.211 -7.67533 100.224 -7.7289 100.218C-7.78248 100.211 -7.83221 100.186 -7.87297 100.144L-37.5261 70.5748C-37.5671 70.5328 -37.5978 70.4761 -37.6152 70.4102C-37.6326 70.3444 -37.6361 70.2718 -37.6254 70.1995ZM29.3656 77.3646L36.962 26.0561L7.58524 -3.27084L-29.3853 18.7264L-36.981 70.0312L-7.60141 99.3435L29.3656 77.3646Z" fill="url(#paint14_radial_532_3)"/>
<path d="M-38.6852 75.9436L-34.1429 20.6642C-34.1361 20.5943 -34.1158 20.5259 -34.0841 20.4655C-34.0524 20.4052 -34.0102 20.3551 -33.9617 20.3199L4.40106 -7.5738C4.4516 -7.60962 4.50688 -7.62852 4.56152 -7.62867C4.61616 -7.62881 4.6683 -7.61018 4.7129 -7.57462L38.532 19.8184C38.5762 19.8551 38.6111 19.9073 38.6335 19.97C38.6559 20.0327 38.665 20.1038 38.6599 20.1765L34.1176 75.4559C34.1113 75.5259 34.0913 75.5946 34.0595 75.6551C34.0277 75.7155 33.9853 75.7656 33.9365 75.8002L-4.42636 103.694C-4.47638 103.73 -4.5312 103.749 -4.58541 103.749C-4.63963 103.749 -4.69136 103.731 -4.73548 103.695L-38.5573 76.3017C-38.5657 76.3015 -38.5739 76.3 -38.5817 76.297C-38.6213 76.2578 -38.6515 76.2049 -38.6696 76.1431C-38.6877 76.0813 -38.693 76.0127 -38.6852 75.9436ZM33.5186 75.2121L38.0233 20.3917L4.48999 -6.74933L-33.5425 20.9007L-38.0409 75.6881L-4.50296 102.849L33.5186 75.2121Z" fill="url(#paint15_radial_532_3)"/>
<path d="M-39.4071 82.0635L-38.4534 23.4916C-38.4522 23.4195 -38.4366 23.347 -38.4083 23.2812C-38.3799 23.2155 -38.3397 23.1589 -38.2917 23.117L0.79354 -10.8699C0.841863 -10.9113 0.896177 -10.9362 0.951063 -10.9423C1.00595 -10.9484 1.05949 -10.9355 1.10627 -10.9047L39.2392 13.673C39.2868 13.7022 39.3261 13.7489 39.3528 13.8081C39.3795 13.8673 39.3927 13.9368 39.3909 14.0092L38.4372 72.5811C38.4359 72.6526 38.4204 72.7245 38.3921 72.7896C38.3638 72.8547 38.3239 72.9107 38.2762 72.9521L-0.815126 106.942C-0.863446 106.983 -0.917778 107.008 -0.972664 107.014C-1.02755 107.02 -1.08107 107.007 -1.12786 106.976L-39.2608 82.3986C-39.2762 82.3885 -39.2908 82.3768 -39.3046 82.3637C-39.3379 82.3287 -39.3642 82.2838 -39.3819 82.232C-39.3996 82.1802 -39.4082 82.1228 -39.4071 82.0635ZM37.816 72.4241L38.7605 14.3242L0.937435 -10.0539L-37.8342 23.6596L-38.7774 81.7522L-0.954303 106.13L37.816 72.4241Z" fill="url(#paint16_radial_532_3)"/>
<path d="M-39.7494 88.5899L-42.8701 27.0188C-42.8735 26.9471 -42.8624 26.8733 -42.8379 26.8049C-42.8135 26.7364 -42.7765 26.6757 -42.7307 26.6286L-3.30143 -13.8501C-3.25815 -13.8938 -3.20845 -13.9236 -3.15687 -13.9369C-3.10528 -13.9502 -3.05344 -13.9465 -3.00606 -13.9262L39.5568 7.17246C39.6061 7.19698 39.6482 7.23885 39.679 7.29395C39.7098 7.34904 39.7282 7.41545 39.7324 7.48665L42.8532 69.0577C42.8565 69.1295 42.8454 69.2032 42.821 69.2717C42.7965 69.3401 42.7595 69.4009 42.7137 69.448L3.28717 109.927C3.24134 109.973 3.18861 110.004 3.13404 110.017C3.07947 110.03 3.02489 110.024 2.97555 110L-39.5873 88.9015C-39.6121 88.8894 -39.6354 88.8735 -39.6568 88.8541C-39.7133 88.7884 -39.7464 88.6941 -39.7494 88.5899ZM42.2186 68.9701L39.1091 7.85229L-3.10378 -13.0655L-42.2383 27.121L-39.1403 88.2253L3.08672 109.157L42.2186 68.9701Z" fill="url(#paint17_radial_532_3)"/>
<path d="M-39.6511 95.4698L-47.3448 31.2436C-47.3521 31.1742 -47.3457 31.1015 -47.326 31.0324C-47.3064 30.9632 -47.2742 30.8998 -47.2324 30.8482L-7.88798 -16.4775C-7.84595 -16.5271 -7.79622 -16.563 -7.74346 -16.5821C-7.69071 -16.6011 -7.63663 -16.6026 -7.5863 -16.5865L39.4335 0.306663C39.4843 0.32563 39.529 0.362482 39.563 0.413566C39.597 0.464651 39.6193 0.528183 39.6276 0.597854L47.3212 64.824C47.3286 64.8934 47.3221 64.9661 47.3025 65.0353C47.2828 65.1045 47.2506 65.1678 47.2089 65.2194L7.88066 112.548C7.83862 112.598 7.7889 112.634 7.73614 112.653C7.68338 112.672 7.62931 112.673 7.57899 112.657L-39.4409 95.7641C-39.476 95.7532 -39.5084 95.7328 -39.5361 95.7041C-39.5973 95.6515 -39.6384 95.5678 -39.6511 95.4698ZM46.6834 64.8116L39.0478 1.04388L-7.64401 -15.7295L-46.703 31.2644L-39.0674 95.0321L7.62445 111.805L46.6834 64.8116Z" fill="url(#paint18_radial_532_3)"/>
<path d="M-39.0657 102.693L-51.8367 36.2459C-51.8514 36.1786 -51.8518 36.1053 -51.838 36.0334C-51.8243 35.9615 -51.7967 35.8936 -51.7581 35.8365L-12.996 -18.6705C-12.9559 -18.7273 -12.9062 -18.7704 -12.852 -18.7953C-12.7979 -18.8203 -12.7412 -18.8262 -12.688 -18.8124L38.8377 -6.87728C38.8903 -6.86549 38.938 -6.83511 38.9761 -6.78921C39.0141 -6.74331 39.0411 -6.68352 39.0543 -6.61588L51.8253 59.8314C51.8399 59.8987 51.8404 59.972 51.8266 60.0439C51.8128 60.1158 51.7853 60.1837 51.7467 60.2409L12.9872 114.748C12.9472 114.805 12.8975 114.848 12.8433 114.873C12.7891 114.898 12.7325 114.904 12.6793 114.89L-38.8464 102.955C-38.8904 102.946 -38.9312 102.924 -38.966 102.89C-39.014 102.841 -39.0486 102.772 -39.0657 102.693ZM51.1707 59.8916L38.485 -6.10722L-12.6941 -17.9606L-51.1876 36.1847L-38.5127 102.181L12.6664 114.035L51.1707 59.8916Z" fill="url(#paint19_radial_532_3)"/>
<path d="M-37.929 110.205L-56.3033 42.0531C-56.3206 41.9879 -56.3243 41.9159 -56.314 41.8442C-56.3037 41.7724 -56.2797 41.7033 -56.2444 41.6436L-18.6103 -20.3464C-18.574 -20.4056 -18.5278 -20.4531 -18.4761 -20.4843C-18.4243 -20.5156 -18.3688 -20.5295 -18.3149 -20.5248L37.6708 -14.3336C37.7249 -14.3272 37.7751 -14.3018 37.8163 -14.26C37.8576 -14.2181 37.8885 -14.1613 37.9059 -14.0952L56.2801 54.0562C56.2983 54.1211 56.3024 54.1933 56.2921 54.2653C56.2817 54.3372 56.2573 54.4064 56.2212 54.4657L18.5987 116.439C18.5625 116.498 18.5162 116.546 18.4645 116.577C18.4128 116.608 18.3573 116.622 18.3034 116.617L-37.6824 110.426C-37.7361 110.418 -37.7862 110.393 -37.8283 110.353C-37.8718 110.317 -37.9065 110.266 -37.929 110.205ZM55.6216 54.1952L37.3763 -13.5448L-18.2601 -19.6689L-55.6448 41.9141L-37.396 109.636L18.2404 115.76L55.6216 54.1952Z" fill="url(#paint20_radial_532_3)"/>
<path d="M-36.1781 117.909L-60.651 48.6602C-60.6734 48.5975 -60.6821 48.526 -60.676 48.4533C-60.6699 48.3805 -60.6494 48.309 -60.6165 48.2461L-24.7335 -21.4186C-24.7009 -21.4813 -24.6572 -21.5334 -24.6069 -21.5697C-24.5566 -21.6059 -24.5014 -21.625 -24.4468 -21.6251L35.9083 -22.0368C35.9608 -22.0356 36.0107 -22.0165 36.0531 -21.9811C36.0955 -21.9457 36.129 -21.8954 36.1503 -21.835L60.6232 47.4143C60.6453 47.4772 60.6538 47.5486 60.6478 47.6213C60.6417 47.694 60.6213 47.7654 60.5887 47.8284L24.7057 117.493C24.6734 117.555 24.6302 117.607 24.5804 117.644C24.5306 117.68 24.4759 117.699 24.4217 117.7L-35.9368 118.115C-36.0001 118.114 -36.0596 118.088 -36.1078 118.041C-36.1393 118.006 -36.1634 117.961 -36.1781 117.909ZM59.99 47.6264L35.663 -21.212L-24.3355 -20.8002L-60.007 48.4502L-35.68 117.289L24.3185 116.877L59.99 47.6264Z" fill="url(#paint21_radial_532_3)"/>
<path d="M-33.7747 125.785L-64.8625 56.1385C-64.8886 56.0789 -64.9015 56.0096 -64.9 55.9374C-64.8984 55.8651 -64.8825 55.7926 -64.8538 55.727L-31.3621 -21.7882C-31.334 -21.8537 -31.2939 -21.9101 -31.246 -21.9515C-31.1981 -21.9929 -31.1441 -22.0179 -31.0895 -22.0239L33.4784 -29.8911C33.5333 -29.8983 33.5871 -29.8862 33.6341 -29.8558C33.6811 -29.8255 33.7196 -29.7781 33.7457 -29.7185L64.8335 39.9279C64.8593 39.9876 64.8723 40.0568 64.8712 40.1289C64.8702 40.2011 64.8551 40.2737 64.8274 40.3399L31.3459 117.861C31.3178 117.926 31.2777 117.983 31.2298 118.024C31.1819 118.066 31.1279 118.091 31.0733 118.097L-33.4953 125.967C-33.5677 125.975 -33.6371 125.949 -33.6921 125.895C-33.7259 125.868 -33.754 125.83 -33.7747 125.785ZM64.1971 40.2152L33.2723 -29.0512L-30.9333 -21.2283L-64.2182 55.883L-33.2987 125.118L30.9069 117.295L64.1971 40.2152Z" fill="url(#paint22_radial_532_3)"/>
<path d="M-30.621 133.774L-68.8134 64.5122C-68.8441 64.457 -68.8621 64.3904 -68.8657 64.3191C-68.8693 64.2479 -68.8583 64.1745 -68.8339 64.1065L-38.4833 -21.3613C-38.4592 -21.4291 -38.4226 -21.4894 -38.3772 -21.5359C-38.3318 -21.5824 -38.2792 -21.6136 -38.2247 -21.6263L30.3081 -37.8379C30.363 -37.851 30.418 -37.8452 30.4675 -37.8211C30.517 -37.7969 30.5595 -37.7553 30.5906 -37.7004L68.7965 31.5641C68.8271 31.6192 68.8452 31.6858 68.8488 31.7571C68.8523 31.8284 68.8414 31.9018 68.817 31.9698L38.4664 117.438C38.4423 117.505 38.4057 117.566 38.3603 117.612C38.3149 117.659 38.2623 117.69 38.2078 117.703L-30.3386 133.912C-30.3794 133.922 -30.4205 133.921 -30.4593 133.91C-30.4981 133.898 -30.5339 133.877 -30.5646 133.845C-30.5856 133.825 -30.6046 133.801 -30.621 133.774ZM68.1869 31.9172L30.1833 -36.9825L-37.9984 -20.874L-68.1901 64.1466L-30.2002 133.059L37.9815 116.95L68.1869 31.9172Z" fill="url(#paint23_radial_532_3)"/>
<path d="M-26.6931 141.753L-72.4644 73.7813C-72.4977 73.7311 -72.5199 73.6692 -72.529 73.6012C-72.538 73.5332 -72.5336 73.4614 -72.5161 73.3923L-46.0712 -20.0383C-46.0514 -20.1081 -46.0187 -20.172 -45.9763 -20.2237C-45.9339 -20.2754 -45.8833 -20.313 -45.8293 -20.333L26.3704 -45.7651C26.4246 -45.7845 26.4802 -45.7849 26.5314 -45.7664C26.5826 -45.748 26.6276 -45.7112 26.6619 -45.6599L72.4502 22.2957C72.4832 22.3459 72.505 22.4079 72.5136 22.4758C72.5221 22.5438 72.5172 22.6154 72.4992 22.6841L46.0557 116.107C46.0364 116.178 46.0039 116.242 45.9614 116.294C45.9189 116.345 45.868 116.383 45.8139 116.402L-26.4002 141.85C-26.4477 141.87 -26.4968 141.876 -26.5438 141.867C-26.5908 141.858 -26.6343 141.835 -26.671 141.798L-26.6931 141.753ZM71.851 22.7114L26.3047 -44.9249L-45.5548 -19.598L-71.8658 73.3692L-26.3222 141.005L45.5379 115.674L71.851 22.7114Z" fill="url(#paint24_radial_532_3)"/>
<path d="M-21.9323 149.663L-75.7299 83.9543C-75.7682 83.907 -75.7951 83.8458 -75.808 83.7767C-75.8209 83.7077 -75.8193 83.6333 -75.8033 83.5611L-54.1067 -17.7285C-54.093 -17.8035 -54.0643 -17.8744 -54.0238 -17.9334C-53.9833 -17.9925 -53.9324 -18.0375 -53.8768 -18.0635L21.6134 -53.6374C21.6659 -53.6646 21.7214 -53.6736 21.7743 -53.6635C21.8271 -53.6534 21.8753 -53.6244 21.914 -53.5797L75.705 12.1204C75.7432 12.1677 75.7701 12.2289 75.783 12.2979C75.7959 12.367 75.7943 12.4413 75.7784 12.5135L54.0817 113.803C54.0662 113.875 54.0371 113.941 53.9974 113.997C53.9577 114.053 53.9087 114.095 53.8553 114.12L-21.6317 149.721C-21.6791 149.742 -21.7284 149.748 -21.7755 149.739C-21.8226 149.73 -21.8661 149.706 -21.9025 149.669C-21.9126 149.668 -21.9226 149.666 -21.9323 149.663ZM75.1154 12.6176L21.5869 -52.782L-53.5513 -17.3453L-75.1385 83.4764L-21.5956 148.86L53.5344 113.421L75.1154 12.6176Z" fill="url(#paint25_radial_532_3)"/>
<path d="M-16.2745 157.333L-78.4869 95.0323C-78.5278 94.9903 -78.5585 94.9336 -78.576 94.8678C-78.5934 94.8019 -78.5969 94.7293 -78.5861 94.657L-62.5284 -14.2988C-62.5174 -14.3713 -62.4924 -14.4408 -62.4558 -14.5004C-62.4192 -14.5599 -62.3724 -14.6073 -62.3201 -14.6379L15.9501 -61.293C16.0024 -61.3227 16.0581 -61.3349 16.1119 -61.3286C16.1658 -61.3222 16.2159 -61.2975 16.2576 -61.2568L78.47 1.04387C78.5114 1.08536 78.5425 1.142 78.5599 1.20796C78.5774 1.27393 78.5806 1.34684 78.5693 1.41923L62.5115 110.375C62.5006 110.447 62.476 110.516 62.4399 110.576C62.4039 110.635 62.3577 110.683 62.306 110.715L-15.9669 157.369C-16.0191 157.4 -16.0751 157.413 -16.1291 157.406C-16.183 157.4 -16.2332 157.375 -16.2745 157.333ZM77.9222 1.58698L15.9894 -60.4439L-61.9426 -13.9855L-77.9323 94.4981L-15.986 156.532L61.9461 110.073L77.9222 1.58698Z" fill="url(#paint26_radial_532_3)"/>
<path d="M-80.7916 106.637L-71.3054 -9.67481C-71.298 -9.74491 -71.2772 -9.81333 -71.245 -9.87352C-71.2128 -9.93371 -71.1703 -9.98366 -71.1215 -10.0186L9.35193 -68.6275C9.40229 -68.6644 9.45771 -68.6839 9.51251 -68.684C9.56731 -68.6842 9.61952 -68.665 9.66375 -68.6283L80.6489 -10.9145C80.6928 -10.8786 80.7274 -10.8271 80.7495 -10.765C80.7716 -10.7029 80.7803 -10.6325 80.7748 -10.5606L71.2872 105.758C71.2797 105.829 71.2589 105.897 71.2267 105.957C71.1945 106.017 71.152 106.067 71.1033 106.102L-9.36805 164.7C-9.41788 164.737 -9.47286 164.757 -9.52725 164.757C-9.58163 164.757 -9.63342 164.738 -9.67717 164.702L-80.6658 106.991C-80.6731 106.99 -80.6803 106.989 -80.6874 106.987C-80.7265 106.948 -80.7564 106.895 -80.7746 106.834C-80.7928 106.773 -80.7987 106.705 -80.7916 106.637ZM70.6854 105.514L80.1333 -10.3197L9.45028 -67.7936L-70.7051 -9.42319L-80.1529 106.411L-9.46991 163.885L70.6854 105.514Z" fill="url(#paint27_radial_532_3)"/>
<path d="M-82.3024 119.474L-80.3723 -3.73055C-80.3717 -3.80271 -80.3564 -3.8755 -80.3279 -3.94137C-80.2995 -4.00724 -80.259 -4.06377 -80.2106 -4.10511L1.76986 -75.5026C1.81819 -75.544 1.87245 -75.5692 1.92736 -75.576C1.98227 -75.5827 2.03597 -75.5707 2.08327 -75.5411L82.1343 -23.7224C82.1811 -23.6925 82.2196 -23.6456 82.2458 -23.5866C82.272 -23.5276 82.2849 -23.4587 82.2833 -23.3868L80.3533 99.8178C80.3525 99.8896 80.3374 99.962 80.3095 100.028C80.2816 100.094 80.2419 100.151 80.1943 100.193L-1.7889 171.59C-1.83724 171.631 -1.8915 171.656 -1.94641 171.663C-2.00132 171.67 -2.05503 171.658 -2.10234 171.628L-82.1534 119.81C-82.1687 119.8 -82.1834 119.788 -82.1972 119.775C-82.2309 119.74 -82.2577 119.695 -82.2758 119.643C-82.294 119.591 -82.303 119.534 -82.3024 119.474ZM79.7327 99.657L81.6584 -23.0859L1.91665 -74.7163L-79.7503 -3.57711L-81.6761 119.166L-1.93148 170.782L79.7327 99.657Z" fill="url(#paint28_radial_532_3)"/>
<path d="M-83.0123 133.128L-89.6569 3.59728C-89.6604 3.52616 -89.6494 3.45296 -89.625 3.38507C-89.6007 3.31719 -89.5638 3.25702 -89.5181 3.2107L-6.82584 -81.8065C-6.78057 -81.8541 -6.72771 -81.886 -6.67286 -81.8988C-6.61801 -81.9116 -6.56319 -81.9049 -6.51423 -81.8794L82.8226 -37.3656C82.8718 -37.3416 82.9137 -37.2999 82.9441 -37.2447C82.9745 -37.1896 82.9922 -37.1231 82.9954 -37.0519L89.64 92.479C89.6435 92.5501 89.6325 92.6233 89.6081 92.6912C89.5838 92.7591 89.5469 92.8192 89.5012 92.8656L6.80895 177.883C6.7635 177.93 6.71071 177.962 6.65589 177.975C6.60107 177.989 6.54615 177.983 6.49663 177.959L-82.8374 133.431C-82.8612 133.419 -82.8837 133.403 -82.9042 133.384C-82.9661 133.325 -83.0049 133.233 -83.0123 133.128ZM89.0026 92.3909L82.3863 -36.6722L-6.62469 -81.0401L-89.0167 3.6708L-82.4019 132.756L6.6064 177.124L89.0026 92.3909Z" fill="url(#paint29_radial_532_3)"/>
<path d="M-82.8067 147.542L-99.0724 12.4277C-99.0798 12.3584 -99.0733 12.2856 -99.0537 12.2165C-99.034 12.1473 -99.0018 12.0839 -98.9601 12.0323L-16.4759 -87.342C-16.4341 -87.3921 -16.3844 -87.4285 -16.3315 -87.4476C-16.2786 -87.4667 -16.2245 -87.4678 -16.1742 -87.451L82.582 -51.744C82.6334 -51.7256 82.6787 -51.6889 82.7132 -51.6377C82.7478 -51.5864 82.7704 -51.5225 82.7788 -51.4523L99.0439 83.6504C99.0513 83.7197 99.0448 83.7925 99.0252 83.8617C99.0055 83.9308 98.9733 83.9942 98.9316 84.0458L16.4377 183.456C16.3959 183.506 16.3462 183.543 16.2933 183.562C16.2404 183.581 16.1862 183.582 16.136 183.565L-82.6202 147.858C-82.6546 147.848 -82.6861 147.827 -82.7127 147.799C-82.7694 147.736 -82.8031 147.644 -82.8067 147.542ZM98.4198 83.6254L82.21 -51.0194L-16.2183 -86.6065L-98.4286 12.4527L-82.2188 147.097L16.2013 182.683L98.4198 83.6254Z" fill="url(#paint30_radial_532_3)"/>
<path d="M-81.5594 162.644L-108.518 22.8784C-108.532 22.8115 -108.532 22.7391 -108.518 22.668C-108.505 22.5969 -108.478 22.5296 -108.44 22.4726L-27.1809 -91.9885C-27.1411 -92.0455 -27.0914 -92.0889 -27.0371 -92.1138C-26.9829 -92.1388 -26.9261 -92.1445 -26.8729 -92.1303L81.3415 -66.8224C81.3941 -66.8106 81.4418 -66.7803 81.4798 -66.7344C81.5179 -66.6885 81.5448 -66.6287 81.558 -66.561L108.517 73.2048C108.531 73.2715 108.532 73.3442 108.518 73.4155C108.505 73.4868 108.477 73.5541 108.439 73.6106L27.1796 188.072C27.1393 188.128 27.0895 188.17 27.0355 188.195C26.9814 188.22 26.9249 188.226 26.8716 188.213L-81.3428 162.906C-81.3874 162.898 -81.4284 162.874 -81.4616 162.837C-81.5095 162.79 -81.5436 162.722 -81.5594 162.644ZM107.863 73.2613L80.9895 -66.056L-26.8756 -91.2969L-107.878 22.8041L-81.0042 162.121L26.8608 187.362L107.863 73.2613Z" fill="url(#paint31_radial_532_3)"/>
</g>
<defs>
<radialGradient id="paint0_radial_532_3" cx="0" cy="0" r="1" gradientUnits="userSpaceOnUse" gradientTransform="translate(-0.0288043 46.9881) rotate(100.859) scale(162.517 120.382)">
<stop stop-color="#EB6868"/>
<stop offset="0.21" stop-color="#49EBE1"/>
<stop offset="0.46" stop-color="#2595C5"/>
<stop offset="0.72" stop-color="#1D7499"/>
<stop offset="1" stop-color="#1293CB"/>
</radialGradient>
<radialGradient id="paint1_radial_532_3" cx="0" cy="0" r="1" gradientUnits="userSpaceOnUse" gradientTransform="translate(-0.0209142 46.9233) rotate(100.859) scale(173.865 122.738)">
<stop stop-color="#EB6868"/>
<stop offset="0.21" stop-color="#49EBE1"/>
<stop offset="0.46" stop-color="#2595C5"/>
<stop offset="0.72" stop-color="#1D7499"/>
<stop offset="1" stop-color="#1293CB"/>
</radialGradient>
<radialGradient id="paint2_radial_532_3" cx="0" cy="0" r="1" gradientUnits="userSpaceOnUse" gradientTransform="translate(-0.0358838 46.8486) rotate(100.859) scale(184.441 132.51)">
<stop stop-color="#EB6868"/>
<stop offset="0.21" stop-color="#49EBE1"/>
<stop offset="0.46" stop-color="#2595C5"/>
<stop offset="0.72" stop-color="#1D7499"/>
<stop offset="1" stop-color="#1293CB"/>
</radialGradient>
<radialGradient id="paint3_radial_532_3" cx="0" cy="0" r="1" gradientUnits="userSpaceOnUse" gradientTransform="translate(-0.038421 46.789) rotate(100.859) scale(194.222 146.322)">
<stop stop-color="#EB6868"/>
<stop offset="0.21" stop-color="#49EBE1"/>
<stop offset="0.46" stop-color="#2595C5"/>
<stop offset="0.72" stop-color="#1D7499"/>
<stop offset="1" stop-color="#1293CB"/>
</radialGradient>
<radialGradient id="paint4_radial_532_3" cx="0" cy="0" r="1" gradientUnits="userSpaceOnUse" gradientTransform="translate(-0.0486304 46.7072) rotate(100.859) scale(203.144 160.224)">
<stop stop-color="#EB6868"/>
<stop offset="0.21" stop-color="#49EBE1"/>
<stop offset="0.46" stop-color="#2595C5"/>
<stop offset="0.72" stop-color="#1D7499"/>
<stop offset="1" stop-color="#1293CB"/>
</radialGradient>
<radialGradient id="paint5_radial_532_3" cx="0" cy="0" r="1" gradientUnits="userSpaceOnUse" gradientTransform="translate(-0.0704554 46.6734) rotate(100.859) scale(210.673 174.042)">
<stop stop-color="#EB6868"/>
<stop offset="0.21" stop-color="#49EBE1"/>
<stop offset="0.46" stop-color="#2595C5"/>
<stop offset="0.72" stop-color="#1D7499"/>
<stop offset="1" stop-color="#1293CB"/>
</radialGradient>
<radialGradient id="paint6_radial_532_3" cx="0" cy="0" r="1" gradientUnits="userSpaceOnUse" gradientTransform="translate(-0.0900461 46.6384) rotate(100.859) scale(216.728 187.546)">
<stop stop-color="#EB6868"/>
<stop offset="0.21" stop-color="#49EBE1"/>
<stop offset="0.46" stop-color="#2595C5"/>
<stop offset="0.72" stop-color="#1D7499"/>
<stop offset="1" stop-color="#1293CB"/>
</radialGradient>
<radialGradient id="paint7_radial_532_3" cx="0" cy="0" r="1" gradientUnits="userSpaceOnUse" gradientTransform="translate(-0.101086 46.6133) rotate(100.859) scale(220.895 200.731)">
<stop stop-color="#EB6868"/>
<stop offset="0.21" stop-color="#49EBE1"/>
<stop offset="0.46" stop-color="#2595C5"/>
<stop offset="0.72" stop-color="#1D7499"/>
<stop offset="1" stop-color="#1293CB"/>
</radialGradient>
<radialGradient id="paint8_radial_532_3" cx="0" cy="0" r="1" gradientUnits="userSpaceOnUse" gradientTransform="translate(-0.108204 46.481) rotate(100.859) scale(238.293 212.999)">
<stop stop-color="#EB6868"/>
<stop offset="0.21" stop-color="#49EBE1"/>
<stop offset="0.46" stop-color="#2595C5"/>
<stop offset="0.72" stop-color="#1D7499"/>
<stop offset="1" stop-color="#1293CB"/>
</radialGradient>
<radialGradient id="paint9_radial_532_3" cx="0" cy="0" r="1" gradientUnits="userSpaceOnUse" gradientTransform="translate(-0.0947379 46.3006) rotate(100.859) scale(263.474 224.447)">
<stop stop-color="#EB6868"/>
<stop offset="0.21" stop-color="#49EBE1"/>
<stop offset="0.46" stop-color="#2595C5"/>
<stop offset="0.72" stop-color="#1D7499"/>
<stop offset="1" stop-color="#1293CB"/>
</radialGradient>
<radialGradient id="paint10_radial_532_3" cx="0" cy="0" r="1" gradientUnits="userSpaceOnUse" gradientTransform="translate(-0.0825379 46.1749) rotate(100.859) scale(288.599 234.761)">
<stop stop-color="#EB6868"/>
<stop offset="0.21" stop-color="#49EBE1"/>
<stop offset="0.46" stop-color="#2595C5"/>
<stop offset="0.72" stop-color="#1D7499"/>
<stop offset="1" stop-color="#1293CB"/>
</radialGradient>
<radialGradient id="paint11_radial_532_3" cx="0" cy="0" r="1" gradientUnits="userSpaceOnUse" gradientTransform="translate(-0.065157 46.0141) rotate(100.859) scale(313.591 243.559)">
<stop stop-color="#EB6868"/>
<stop offset="0.21" stop-color="#49EBE1"/>
<stop offset="0.46" stop-color="#2595C5"/>
<stop offset="0.72" stop-color="#1D7499"/>
<stop offset="1" stop-color="#1293CB"/>
</radialGradient>
<radialGradient id="paint12_radial_532_3" cx="0" cy="0" r="1" gradientUnits="userSpaceOnUse" gradientTransform="translate(-0.051702 45.8609) rotate(100.859) scale(338.147 250.53)">
<stop stop-color="#EB6868"/>
<stop offset="0.21" stop-color="#49EBE1"/>
<stop offset="0.46" stop-color="#2595C5"/>
<stop offset="0.72" stop-color="#1D7499"/>
<stop offset="1" stop-color="#1293CB"/>
</radialGradient>
<radialGradient id="paint13_radial_532_3" cx="0" cy="0" r="1" gradientUnits="userSpaceOnUse" gradientTransform="translate(-0.0288816 45.7038) rotate(100.859) scale(361.803 255.417)">
<stop stop-color="#EB6868"/>
<stop offset="0.21" stop-color="#49EBE1"/>
<stop offset="0.46" stop-color="#2595C5"/>
<stop offset="0.72" stop-color="#1D7499"/>
<stop offset="1" stop-color="#1293CB"/>
</radialGradient>
<radialGradient id="paint14_radial_532_3" cx="0" cy="0" r="1" gradientUnits="userSpaceOnUse" gradientTransform="translate(-0.0407536 45.5582) rotate(100.859) scale(384.2 275.472)">
<stop stop-color="#EB6868"/>
<stop offset="0.21" stop-color="#49EBE1"/>
<stop offset="0.46" stop-color="#2595C5"/>
<stop offset="0.72" stop-color="#1D7499"/>
<stop offset="1" stop-color="#1293CB"/>
</radialGradient>
<radialGradient id="paint15_radial_532_3" cx="0" cy="0" r="1" gradientUnits="userSpaceOnUse" gradientTransform="translate(-0.0729122 45.448) rotate(100.859) scale(404.981 304.464)">
<stop stop-color="#EB6868"/>
<stop offset="0.21" stop-color="#49EBE1"/>
<stop offset="0.46" stop-color="#2595C5"/>
<stop offset="0.72" stop-color="#1D7499"/>
<stop offset="1" stop-color="#1293CB"/>
</radialGradient>
<radialGradient id="paint16_radial_532_3" cx="0" cy="0" r="1" gradientUnits="userSpaceOnUse" gradientTransform="translate(-0.0983855 45.2989) rotate(100.859) scale(423.614 333.635)">
<stop stop-color="#EB6868"/>
<stop offset="0.21" stop-color="#49EBE1"/>
<stop offset="0.46" stop-color="#2595C5"/>
<stop offset="0.72" stop-color="#1D7499"/>
<stop offset="1" stop-color="#1293CB"/>
</radialGradient>
<radialGradient id="paint17_radial_532_3" cx="0" cy="0" r="1" gradientUnits="userSpaceOnUse" gradientTransform="translate(-0.131522 45.1936) rotate(100.859) scale(439.526 362.601)">
<stop stop-color="#EB6868"/>
<stop offset="0.21" stop-color="#49EBE1"/>
<stop offset="0.46" stop-color="#2595C5"/>
<stop offset="0.72" stop-color="#1D7499"/>
<stop offset="1" stop-color="#1293CB"/>
</radialGradient>
<radialGradient id="paint18_radial_532_3" cx="0" cy="0" r="1" gradientUnits="userSpaceOnUse" gradientTransform="translate(-0.16995 45.0996) rotate(100.859) scale(452.218 390.958)">
<stop stop-color="#EB6868"/>
<stop offset="0.21" stop-color="#49EBE1"/>
<stop offset="0.46" stop-color="#2595C5"/>
<stop offset="0.72" stop-color="#1D7499"/>
<stop offset="1" stop-color="#1293CB"/>
</radialGradient>
<radialGradient id="paint19_radial_532_3" cx="0" cy="0" r="1" gradientUnits="userSpaceOnUse" gradientTransform="translate(-0.202173 45.0397) rotate(100.859) scale(461.164 418.456)">
<stop stop-color="#EB6868"/>
<stop offset="0.21" stop-color="#49EBE1"/>
<stop offset="0.46" stop-color="#2595C5"/>
<stop offset="0.72" stop-color="#1D7499"/>
<stop offset="1" stop-color="#1293CB"/>
</radialGradient>
<radialGradient id="paint20_radial_532_3" cx="0" cy="0" r="1" gradientUnits="userSpaceOnUse" gradientTransform="translate(-0.207708 44.8075) rotate(100.859) scale(498.314 444.426)">
<stop stop-color="#EB6868"/>
<stop offset="0.21" stop-color="#49EBE1"/>
<stop offset="0.46" stop-color="#2595C5"/>
<stop offset="0.72" stop-color="#1D7499"/>
<stop offset="1" stop-color="#1293CB"/>
</radialGradient>
<radialGradient id="paint21_radial_532_3" cx="0" cy="0" r="1" gradientUnits="userSpaceOnUse" gradientTransform="translate(-0.192868 44.4668) rotate(100.859) scale(551.021 468.313)">
<stop stop-color="#EB6868"/>
<stop offset="0.21" stop-color="#49EBE1"/>
<stop offset="0.46" stop-color="#2595C5"/>
<stop offset="0.72" stop-color="#1D7499"/>
<stop offset="1" stop-color="#1293CB"/>
</radialGradient>
<radialGradient id="paint22_radial_532_3" cx="0" cy="0" r="1" gradientUnits="userSpaceOnUse" gradientTransform="translate(-0.168397 44.1284) rotate(100.859) scale(603.952 489.897)">
<stop stop-color="#EB6868"/>
<stop offset="0.21" stop-color="#49EBE1"/>
<stop offset="0.46" stop-color="#2595C5"/>
<stop offset="0.72" stop-color="#1D7499"/>
<stop offset="1" stop-color="#1293CB"/>
</radialGradient>
<radialGradient id="paint23_radial_532_3" cx="0" cy="0" r="1" gradientUnits="userSpaceOnUse" gradientTransform="translate(-0.132495 43.7985) rotate(100.859) scale(656.568 508.233)">
<stop stop-color="#EB6868"/>
<stop offset="0.21" stop-color="#49EBE1"/>
<stop offset="0.46" stop-color="#2595C5"/>
<stop offset="0.72" stop-color="#1D7499"/>
<stop offset="1" stop-color="#1293CB"/>
</radialGradient>
<radialGradient id="paint24_radial_532_3" cx="0" cy="0" r="1" gradientUnits="userSpaceOnUse" gradientTransform="translate(-0.09906 43.4843) rotate(100.859) scale(708.076 522.883)">
<stop stop-color="#EB6868"/>
<stop offset="0.21" stop-color="#49EBE1"/>
<stop offset="0.46" stop-color="#2595C5"/>
<stop offset="0.72" stop-color="#1D7499"/>
<stop offset="1" stop-color="#1293CB"/>
</radialGradient>
<radialGradient id="paint25_radial_532_3" cx="0" cy="0" r="1" gradientUnits="userSpaceOnUse" gradientTransform="translate(-0.0600223 43.1592) rotate(100.859) scale(757.968 533.175)">
<stop stop-color="#EB6868"/>
<stop offset="0.21" stop-color="#49EBE1"/>
<stop offset="0.46" stop-color="#2595C5"/>
<stop offset="0.72" stop-color="#1D7499"/>
<stop offset="1" stop-color="#1293CB"/>
</radialGradient>
<radialGradient id="paint26_radial_532_3" cx="0" cy="0" r="1" gradientUnits="userSpaceOnUse" gradientTransform="translate(-0.0761299 42.8562) rotate(100.859) scale(805.09 575.706)">
<stop stop-color="#EB6868"/>
<stop offset="0.21" stop-color="#49EBE1"/>
<stop offset="0.46" stop-color="#2595C5"/>
<stop offset="0.72" stop-color="#1D7499"/>
<stop offset="1" stop-color="#1293CB"/>
</radialGradient>
<radialGradient id="paint27_radial_532_3" cx="0" cy="0" r="1" gradientUnits="userSpaceOnUse" gradientTransform="translate(-0.132336 42.5628) rotate(100.859) scale(848.691 636.706)">
<stop stop-color="#EB6868"/>
<stop offset="0.21" stop-color="#49EBE1"/>
<stop offset="0.46" stop-color="#2595C5"/>
<stop offset="0.72" stop-color="#1D7499"/>
<stop offset="1" stop-color="#1293CB"/>
</radialGradient>
<radialGradient id="paint28_radial_532_3" cx="0" cy="0" r="1" gradientUnits="userSpaceOnUse" gradientTransform="translate(-0.196535 42.3074) rotate(100.859) scale(887.72 698.031)">
<stop stop-color="#EB6868"/>
<stop offset="0.21" stop-color="#49EBE1"/>
<stop offset="0.46" stop-color="#2595C5"/>
<stop offset="0.72" stop-color="#1D7499"/>
<stop offset="1" stop-color="#1293CB"/>
</radialGradient>
<radialGradient id="paint29_radial_532_3" cx="0" cy="0" r="1" gradientUnits="userSpaceOnUse" gradientTransform="translate(-0.0184882 46.9634) rotate(100.859) scale(162.063 120.045)">
<stop stop-color="#C7C7C7"/>
<stop offset="0.21" stop-color="#DDDDDD"/>
<stop offset="0.46" stop-color="#F0F0F0"/>
<stop offset="0.72" stop-color="#FBFBFB"/>
<stop offset="1" stop-color="white"/>
</radialGradient>
<radialGradient id="paint30_radial_532_3" cx="0" cy="0" r="1" gradientUnits="userSpaceOnUse" gradientTransform="translate(-0.0171297 46.9563) rotate(100.859) scale(162.752 120.555)">
<stop stop-color="#C7C7C7"/>
<stop offset="0.21" stop-color="#DDDDDD"/>
<stop offset="0.46" stop-color="#F0F0F0"/>
<stop offset="0.72" stop-color="#FBFBFB"/>
<stop offset="1" stop-color="white"/>
</radialGradient>
<radialGradient id="paint31_radial_532_3" cx="0" cy="0" r="1" gradientUnits="userSpaceOnUse" gradientTransform="translate(0.187256 47.0182) rotate(100.859) scale(161.787 119.841)">
<stop stop-color="#C7C7C7"/>
<stop offset="0.21" stop-color="#DDDDDD"/>
<stop offset="0.46" stop-color="#F0F0F0"/>
<stop offset="0.72" stop-color="#FBFBFB"/>
<stop offset="1" stop-color="white"/>
</radialGradient>
</defs>
</svg>
