<svg width="180" height="58" viewBox="0 0 180 58" fill="none" xmlns="http://www.w3.org/2000/svg">
<path d="M3.26852 46.6392V28.6452C3.26852 27.153 3.56607 25.6753 4.14416 24.2967C4.72225 22.9181 5.56957 21.6655 6.6377 20.6105C7.70583 19.5555 8.97386 18.7188 10.3694 18.1481C11.7648 17.5774 13.2604 17.2839 14.7707 17.2845C17.8202 17.2845 20.7448 18.4814 22.9011 20.612C25.0574 22.7425 26.2688 25.6322 26.2688 28.6452V46.6392C26.2688 49.6523 25.0574 52.5419 22.9011 54.6725C20.7448 56.803 17.8202 58 14.7707 58C13.2604 58.0005 11.7648 57.7071 10.3694 57.1364C8.97386 56.5657 7.70583 55.729 6.6377 54.674C5.56957 53.619 4.72225 52.3664 4.14416 50.9878C3.56607 49.6091 3.26852 48.1315 3.26852 46.6392Z" fill="#CDA7FF"/>
<path d="M27.4921 29.3547V11.3607C27.4921 8.34767 28.7035 5.45802 30.8598 3.32747C33.0161 1.19692 35.9407 -1.52588e-05 38.9901 -1.52588e-05C42.0396 -1.52588e-05 44.9642 1.19692 47.1205 3.32747C49.2768 5.45802 50.4882 8.34767 50.4882 11.3607V29.3547C50.4882 32.3678 49.2768 35.2574 47.1205 37.388C44.9642 39.5185 42.0396 40.7155 38.9901 40.7155C35.9407 40.7155 33.0161 39.5185 30.8598 37.388C28.7035 35.2574 27.4921 32.3678 27.4921 29.3547Z" fill="#FFC2F8"/>
<path d="M61.9863 38.5951L161.886 38.5951C168.237 38.5951 173.385 33.5087 173.385 27.2344C173.385 20.96 168.237 15.8736 161.886 15.8736L61.9863 15.8736C55.6361 15.8736 50.4882 20.96 50.4882 27.2344C50.4882 33.5087 55.6361 38.5951 61.9863 38.5951Z" fill="#FFF48F"/>
<path d="M53.0809 24.6355C52.8444 23.6881 52.4925 22.7725 52.033 21.9088C50.805 19.6721 48.9887 17.8044 46.7757 16.5029C44.5627 15.2014 42.0352 14.5144 39.4598 14.5144C36.8845 14.5144 34.3569 15.2014 32.1439 16.5029C29.9309 17.8044 28.1146 19.6721 26.8867 21.9088C25.6795 19.7141 23.9054 17.8746 21.745 16.5773C19.5847 15.28 17.1151 14.5713 14.5875 14.5232C12.0599 14.4751 9.56449 15.0894 7.35519 16.3036C5.14588 17.5178 3.3015 19.2885 2.00966 21.4356C0.717829 23.5828 0.02465 26.0297 0.000645373 28.5274C-0.0233592 31.0252 0.622667 33.4847 1.873 35.6556C3.12334 37.8266 4.93336 39.6316 7.11893 40.887C9.3045 42.1424 11.7876 42.8034 14.3157 42.8028C14.7863 42.8028 15.2376 42.6181 15.5704 42.2893C15.9031 41.9605 16.0901 41.5146 16.0901 41.0496C16.0901 40.5846 15.9031 40.1387 15.5704 39.8099C15.2376 39.4811 14.7863 39.2964 14.3157 39.2964C12.1859 39.2964 10.104 38.6723 8.3332 37.5032C6.56242 36.334 5.18233 34.6722 4.3675 32.7279C3.55266 30.7837 3.33967 28.6444 3.75547 26.5805C4.17127 24.5167 5.19719 22.621 6.70345 21.1333C8.20972 19.6456 10.1287 18.6327 12.2176 18.2227C14.3066 17.8126 16.4717 18.0239 18.4391 18.8298C20.4065 19.6356 22.0879 20.9999 23.2705 22.75C24.4531 24.5 25.0839 26.5574 25.0831 28.6617C25.0843 28.8284 25.111 28.9939 25.1624 29.1526C25.2943 32.8141 26.8581 36.2825 29.5249 38.8282C32.1917 41.374 35.7538 42.7987 39.4619 42.8028C39.9325 42.8028 40.3838 42.6181 40.7166 42.2893C41.0494 41.9605 41.2363 41.5146 41.2363 41.0496C41.2363 40.5846 41.0494 40.1387 40.7166 39.8099C40.3838 39.4811 39.9325 39.2964 39.4619 39.2964C37.332 39.2972 35.2496 38.6739 33.4783 37.5052C31.707 36.3365 30.3262 34.6749 29.5108 32.7308C28.6953 30.7866 28.4817 28.6472 28.897 26.5831C29.3124 24.5189 30.3379 22.6229 31.844 21.1348C33.3501 19.6467 35.2691 18.6333 37.3582 18.223C39.4472 17.8126 41.6125 18.0236 43.5802 18.8294C45.5478 19.6351 47.2294 20.9994 48.4123 22.7495C49.5951 24.4997 50.226 26.5572 50.2252 28.6617C50.2252 28.7607 53.156 25.1842 53.0809 24.6355Z" fill="#353C56"/>
<path d="M18.6619 31.0419H15.539V34.1276C15.539 34.5926 15.352 35.0385 15.0193 35.3673C14.6865 35.6961 14.2352 35.8808 13.7646 35.8808C13.294 35.8808 12.8427 35.6961 12.5099 35.3673C12.1771 35.0385 11.9902 34.5926 11.9902 34.1276V31.0419H8.86726C8.39666 31.0419 7.94534 30.8572 7.61258 30.5284C7.27982 30.1997 7.09287 29.7537 7.09287 29.2887C7.09287 28.8238 7.27982 28.3778 7.61258 28.049C7.94534 27.7203 8.39666 27.5355 8.86726 27.5355H11.9902V24.4499C11.9902 23.9849 12.1771 23.539 12.5099 23.2102C12.8427 22.8814 13.294 22.6967 13.7646 22.6967C14.2352 22.6967 14.6865 22.8814 15.0193 23.2102C15.352 23.539 15.539 23.9849 15.539 24.4499V27.5355H18.6619C19.1325 27.5355 19.5838 27.7203 19.9166 28.049C20.2493 28.3778 20.4363 28.8238 20.4363 29.2887C20.4363 29.7537 20.2493 30.1997 19.9166 30.5284C19.5838 30.8572 19.1325 31.0419 18.6619 31.0419Z" fill="#353C56"/>
<path d="M32.8445 26.199L37.6166 34.3668C37.742 34.5791 37.9215 34.7552 38.1372 34.8776C38.3529 35 38.5973 35.0644 38.8461 35.0644C39.0949 35.0644 39.3393 35 39.555 34.8776C39.7707 34.7552 39.9502 34.5791 40.0757 34.3668L44.902 26.1165C44.9686 26.0038 45.0205 25.8832 45.0565 25.7576C45.0864 25.6402 45.1018 25.5197 45.1024 25.3987C45.1065 25.3548 45.1065 25.3106 45.1024 25.2667C45.084 25.0743 45.0227 24.8883 44.9229 24.7222C44.8342 24.5688 44.7101 24.4384 44.5606 24.3416C44.4111 24.2448 44.2405 24.1844 44.0628 24.1653C43.9334 24.1281 33.9759 24.1158 33.9592 24.1158C33.7827 24.1058 33.606 24.131 33.4396 24.19C33.2732 24.249 33.1206 24.3405 32.9908 24.4591C32.861 24.5777 32.7568 24.721 32.6843 24.8803C32.6118 25.0396 32.5726 25.2117 32.5689 25.3863C32.5722 25.6791 32.6686 25.9634 32.8445 26.199ZM41.228 26.562L38.8315 30.6377L36.4517 26.562H41.228Z" fill="#353C56"/>
<path d="M17.5012 39.4243C17.5298 39.0677 17.6648 38.7275 17.8893 38.4468C18.1137 38.166 18.4174 37.9575 18.7619 37.8475C19.1064 37.7375 19.4762 37.731 19.8244 37.8289C20.1727 37.9267 20.4837 38.1245 20.7181 38.3972C20.9524 38.6698 21.0996 39.0051 21.1409 39.3605C21.1823 39.7159 21.1159 40.0754 20.9502 40.3935C20.7846 40.7116 20.5271 40.9739 20.2104 41.1473C19.8937 41.3206 19.532 41.3972 19.1713 41.3673C18.6895 41.3273 18.2433 41.1005 17.9304 40.7364C17.6174 40.3722 17.4631 39.9005 17.5012 39.4243Z" fill="#353C56"/>
<path d="M60.4708 39.6318C58.8934 39.6318 57.4198 39.3412 56.05 38.7601C54.6801 38.1789 53.4763 37.3799 52.4386 36.3629C51.4008 35.3251 50.581 34.1317 49.9791 32.7826C49.398 31.4335 49.1074 29.9807 49.1074 28.424C49.1074 26.8674 49.398 25.4146 49.9791 24.0655C50.581 22.7164 51.4008 21.5334 52.4386 20.5164C53.4763 19.4786 54.6801 18.6692 56.05 18.088C57.4198 17.5069 58.8934 17.2163 60.4708 17.2163C61.4463 17.2163 62.3906 17.3201 63.3039 17.5276C64.2171 17.7352 65.0577 18.0465 65.8256 18.4616C66.1369 18.6277 66.3652 18.856 66.5105 19.1465C66.6766 19.4163 66.7596 19.6965 66.7596 19.9871C66.7596 20.4852 66.5935 20.9315 66.2615 21.3258C65.9294 21.7202 65.5039 21.9173 64.985 21.9173C64.819 21.9173 64.6426 21.8966 64.4558 21.8551C64.2897 21.8136 64.1237 21.7513 63.9576 21.6683C63.4388 21.44 62.8888 21.2635 62.3076 21.139C61.7265 21.0145 61.1142 20.9522 60.4708 20.9522C59.1217 20.9522 57.8868 21.2947 56.766 21.9796C55.666 22.6438 54.7839 23.5466 54.1197 24.6881C53.4763 25.8089 53.1546 27.0542 53.1546 28.424C53.1546 29.7731 53.4763 31.0184 54.1197 32.16C54.7839 33.3015 55.666 34.2147 56.766 34.8996C57.8868 35.5638 59.1217 35.8959 60.4708 35.8959C61.0934 35.8959 61.7784 35.8336 62.5255 35.7091C63.2727 35.5845 63.885 35.4185 64.3624 35.2109L64.0822 36.1449V30.8213L64.6114 31.2882H61.1557C60.6161 31.2882 60.1595 31.1118 59.7859 30.759C59.433 30.4062 59.2566 29.9599 59.2566 29.4203C59.2566 28.8807 59.433 28.4344 59.7859 28.0816C60.1595 27.7287 60.6161 27.5523 61.1557 27.5523H66.2615C66.8011 27.5523 67.2473 27.7391 67.6002 28.1127C67.953 28.4656 68.1294 28.9118 68.1294 29.4514V36.0515C68.1294 36.4666 68.0256 36.8091 67.8181 37.0789C67.6313 37.3487 67.4134 37.5666 67.1643 37.7327C66.2096 38.3138 65.1614 38.7808 64.0199 39.1337C62.8991 39.4657 61.7161 39.6318 60.4708 39.6318ZM85.6247 22.3532C86.1643 22.3532 86.6106 22.5296 86.9634 22.8824C87.3162 23.2353 87.4927 23.6919 87.4927 24.2523V37.4214C87.4927 37.961 87.3162 38.4176 86.9634 38.7912C86.6106 39.144 86.1643 39.3204 85.6247 39.3204C85.0851 39.3204 84.6388 39.144 84.286 38.7912C83.9332 38.4176 83.7567 37.961 83.7567 37.4214V35.8959L84.4417 36.1761C84.4417 36.4459 84.2964 36.778 84.0058 37.1723C83.7152 37.5459 83.3209 37.9195 82.8228 38.2931C82.3246 38.6667 81.7331 38.9884 81.0482 39.2582C80.3841 39.5072 79.6576 39.6318 78.8689 39.6318C77.4368 39.6318 76.1396 39.2686 74.9774 38.5421C73.8151 37.795 72.8915 36.778 72.2066 35.4911C71.5424 34.1836 71.2103 32.6892 71.2103 31.008C71.2103 29.3061 71.5424 27.8118 72.2066 26.525C72.8915 25.2174 73.8047 24.2004 74.9462 23.474C76.0878 22.7268 77.3538 22.3532 78.7444 22.3532C79.6369 22.3532 80.4567 22.4881 81.2039 22.7579C81.9511 23.0277 82.5945 23.3702 83.1341 23.7853C83.6945 24.2004 84.12 24.6259 84.4105 25.0617C84.7219 25.4768 84.8775 25.8297 84.8775 26.1202L83.7567 26.525V24.2523C83.7567 23.7126 83.9332 23.2664 84.286 22.9136C84.6388 22.54 85.0851 22.3532 85.6247 22.3532ZM79.3359 36.2072C80.2491 36.2072 81.0482 35.9789 81.7331 35.5223C82.418 35.0657 82.9473 34.443 83.3209 33.6543C83.7152 32.8656 83.9124 31.9835 83.9124 31.008C83.9124 30.0118 83.7152 29.1193 83.3209 28.3306C82.9473 27.542 82.418 26.9193 81.7331 26.4627C81.0482 26.0061 80.2491 25.7778 79.3359 25.7778C78.4435 25.7778 77.6548 26.0061 76.9698 26.4627C76.2849 26.9193 75.7453 27.542 75.3509 28.3306C74.9774 29.1193 74.7906 30.0118 74.7906 31.008C74.7906 31.9835 74.9774 32.8656 75.3509 33.6543C75.7453 34.443 76.2849 35.0657 76.9698 35.5223C77.6548 35.9789 78.4435 36.2072 79.3359 36.2072ZM100.286 22.3532C101.946 22.3532 103.171 22.7579 103.96 23.5674C104.748 24.3561 105.267 25.3834 105.516 26.6495L104.987 26.3693L105.236 25.8712C105.485 25.3938 105.869 24.8853 106.388 24.3457C106.907 23.7853 107.529 23.3183 108.256 22.9447C109.003 22.5504 109.833 22.3532 110.747 22.3532C112.241 22.3532 113.372 22.6749 114.14 23.3183C114.929 23.9617 115.468 24.823 115.759 25.9023C116.049 26.9608 116.195 28.1439 116.195 29.4514V37.4214C116.195 37.961 116.018 38.4176 115.665 38.7912C115.313 39.144 114.866 39.3204 114.327 39.3204C113.787 39.3204 113.341 39.144 112.988 38.7912C112.635 38.4176 112.459 37.961 112.459 37.4214V29.4514C112.459 28.7665 112.376 28.1542 112.21 27.6146C112.044 27.0542 111.743 26.608 111.307 26.2759C110.871 25.9438 110.248 25.7778 109.439 25.7778C108.65 25.7778 107.976 25.9438 107.415 26.2759C106.855 26.608 106.429 27.0542 106.139 27.6146C105.869 28.1542 105.734 28.7665 105.734 29.4514V37.4214C105.734 37.961 105.558 38.4176 105.205 38.7912C104.852 39.144 104.406 39.3204 103.866 39.3204C103.327 39.3204 102.88 39.144 102.528 38.7912C102.175 38.4176 101.998 37.961 101.998 37.4214V29.4514C101.998 28.7665 101.915 28.1542 101.749 27.6146C101.583 27.0542 101.282 26.608 100.846 26.2759C100.41 25.9438 99.7878 25.7778 98.9784 25.7778C98.1897 25.7778 97.5152 25.9438 96.9548 26.2759C96.3944 26.608 95.9689 27.0542 95.6783 27.6146C95.4085 28.1542 95.2736 28.7665 95.2736 29.4514V37.4214C95.2736 37.961 95.0972 38.4176 94.7444 38.7912C94.3915 39.144 93.9453 39.3204 93.4057 39.3204C92.866 39.3204 92.4198 39.144 92.067 38.7912C91.7141 38.4176 91.5377 37.961 91.5377 37.4214V24.5636C91.5377 24.024 91.7141 23.5777 92.067 23.2249C92.4198 22.8513 92.866 22.6645 93.4057 22.6645C93.9453 22.6645 94.3915 22.8513 94.7444 23.2249C95.0972 23.5777 95.2736 24.024 95.2736 24.5636V25.9023L94.8066 25.8089C94.9934 25.4561 95.2529 25.0825 95.5849 24.6881C95.917 24.273 96.3217 23.8891 96.7991 23.5362C97.2765 23.1834 97.8057 22.9032 98.3869 22.6956C98.968 22.4673 99.601 22.3532 100.286 22.3532ZM123.756 37.4214C123.756 37.961 123.58 38.4176 123.227 38.7912C122.874 39.144 122.428 39.3204 121.888 39.3204C121.348 39.3204 120.902 39.144 120.549 38.7912C120.197 38.4176 120.02 37.961 120.02 37.4214V24.5636C120.02 24.024 120.197 23.5777 120.549 23.2249C120.902 22.8513 121.348 22.6645 121.888 22.6645C122.428 22.6645 122.874 22.8513 123.227 23.2249C123.58 23.5777 123.756 24.024 123.756 24.5636V37.4214ZM121.857 20.6409C121.151 20.6409 120.653 20.5267 120.363 20.2984C120.072 20.0701 119.927 19.6654 119.927 19.0843V18.4927C119.927 17.8909 120.082 17.4861 120.394 17.2786C120.726 17.0503 121.224 16.9361 121.888 16.9361C122.615 16.9361 123.123 17.0503 123.414 17.2786C123.704 17.5069 123.849 17.9116 123.849 18.4927V19.0843C123.849 19.6862 123.694 20.1013 123.382 20.3296C123.071 20.5371 122.563 20.6409 121.857 20.6409ZM136.499 22.3532C138.035 22.3532 139.198 22.6749 139.986 23.3183C140.796 23.9617 141.346 24.823 141.636 25.9023C141.948 26.9608 142.103 28.1439 142.103 29.4514V37.4214C142.103 37.961 141.927 38.4176 141.574 38.7912C141.221 39.144 140.775 39.3204 140.235 39.3204C139.696 39.3204 139.25 39.144 138.897 38.7912C138.544 38.4176 138.367 37.961 138.367 37.4214V29.4514C138.367 28.7665 138.274 28.1542 138.087 27.6146C137.921 27.0542 137.61 26.608 137.153 26.2759C136.697 25.9438 136.043 25.7778 135.192 25.7778C134.362 25.7778 133.656 25.9438 133.075 26.2759C132.515 26.608 132.079 27.0542 131.767 27.6146C131.477 28.1542 131.331 28.7665 131.331 29.4514V37.4214C131.331 37.961 131.155 38.4176 130.802 38.7912C130.449 39.144 130.003 39.3204 129.464 39.3204C128.924 39.3204 128.478 39.144 128.125 38.7912C127.772 38.4176 127.596 37.961 127.596 37.4214V24.5636C127.596 24.024 127.772 23.5777 128.125 23.2249C128.478 22.8513 128.924 22.6645 129.464 22.6645C130.003 22.6645 130.449 22.8513 130.802 23.2249C131.155 23.5777 131.331 24.024 131.331 24.5636V25.9023L130.864 25.8089C131.051 25.4561 131.321 25.0825 131.674 24.6881C132.027 24.273 132.442 23.8891 132.919 23.5362C133.397 23.1834 133.936 22.9032 134.538 22.6956C135.14 22.4673 135.794 22.3532 136.499 22.3532ZM153.053 22.3532C153.924 22.3532 154.724 22.4881 155.45 22.7579C156.176 23.0277 156.799 23.3702 157.318 23.7853C157.858 24.2004 158.273 24.6259 158.563 25.0617C158.875 25.4768 159.03 25.8297 159.03 26.1202L158.221 26.525V24.2523C158.221 23.7126 158.397 23.2664 158.75 22.9136C159.103 22.54 159.549 22.3532 160.089 22.3532C160.628 22.3532 161.075 22.5296 161.427 22.8824C161.78 23.2353 161.957 23.6919 161.957 24.2523V38.1063C161.957 39.912 161.562 41.3544 160.774 42.4337C160.006 43.5337 158.989 44.3224 157.723 44.7998C156.457 45.2979 155.097 45.547 153.644 45.547C153.229 45.547 152.69 45.4951 152.025 45.3913C151.361 45.2875 150.728 45.163 150.126 45.0177C149.524 44.8724 149.068 44.7375 148.756 44.613C148.134 44.3432 147.698 44.0007 147.449 43.5856C147.221 43.1913 147.179 42.7658 147.324 42.3092C147.511 41.7073 147.812 41.2922 148.227 41.0639C148.642 40.8563 149.078 40.8356 149.535 41.0016C149.742 41.0639 150.085 41.1884 150.562 41.3752C151.04 41.562 151.558 41.728 152.119 41.8733C152.7 42.0394 153.208 42.1224 153.644 42.1224C155.201 42.1224 156.353 41.8111 157.1 41.1884C157.847 40.5658 158.221 39.7044 158.221 38.6044V35.8959L158.594 36.1761C158.594 36.4459 158.449 36.778 158.159 37.1723C157.889 37.5459 157.505 37.9195 157.007 38.2931C156.529 38.6667 155.958 38.9884 155.294 39.2582C154.63 39.5072 153.924 39.6318 153.177 39.6318C151.704 39.6318 150.375 39.2686 149.192 38.5421C148.009 37.795 147.075 36.778 146.39 35.4911C145.705 34.1836 145.363 32.6892 145.363 31.008C145.363 29.3061 145.705 27.8118 146.39 26.525C147.075 25.2174 147.999 24.2004 149.161 23.474C150.323 22.7268 151.621 22.3532 153.053 22.3532ZM153.644 25.7778C152.71 25.7778 151.89 26.0061 151.185 26.4627C150.479 26.9193 149.929 27.542 149.535 28.3306C149.14 29.1193 148.943 30.0118 148.943 31.008C148.943 31.9835 149.14 32.8656 149.535 33.6543C149.929 34.443 150.479 35.0657 151.185 35.5223C151.89 35.9789 152.71 36.2072 153.644 36.2072C154.599 36.2072 155.429 35.9789 156.135 35.5223C156.841 35.0657 157.391 34.443 157.785 33.6543C158.179 32.8656 158.376 31.9835 158.376 31.008C158.376 30.0118 158.179 29.1193 157.785 28.3306C157.391 27.542 156.841 26.9193 156.135 26.4627C155.429 26.0061 154.599 25.7778 153.644 25.7778Z" fill="#353C56"/>
<path d="M143.241 43.9826H49.1522C48.7092 43.9826 48.2845 43.8088 47.9713 43.4993C47.6581 43.1899 47.4821 42.7702 47.4821 42.3325C47.4821 41.8949 47.6581 41.4752 47.9713 41.1658C48.2845 40.8563 48.7092 40.6825 49.1522 40.6825H143.241C143.684 40.6825 144.108 40.8563 144.422 41.1658C144.735 41.4752 144.911 41.8949 144.911 42.3325C144.911 42.7702 144.735 43.1899 144.422 43.4993C144.108 43.8088 143.684 43.9826 143.241 43.9826Z" fill="#353C56"/>
<path d="M163.44 43.9826C162.997 43.9826 162.572 43.8088 162.259 43.4993C161.945 43.1899 161.77 42.7702 161.77 42.3325C161.77 41.8949 161.945 41.4752 162.259 41.1658C162.572 40.8563 162.997 40.6825 163.44 40.6825C166.49 40.6822 169.447 39.6396 171.809 37.7315C174.17 35.8234 175.791 33.1671 176.397 30.2129C177.003 27.2588 176.557 24.1884 175.133 21.5224C173.71 18.8564 171.397 16.7587 168.587 15.5849C168.383 15.5026 168.196 15.3809 168.039 15.2269C167.882 15.0729 167.758 14.8896 167.673 14.6877C167.589 14.4858 167.546 14.2694 167.546 14.0508C167.547 13.8323 167.592 13.6162 167.678 13.4148C167.764 13.2135 167.889 13.0311 168.047 12.8781C168.205 12.7251 168.392 12.6047 168.598 12.5237C168.803 12.4427 169.023 12.4029 169.244 12.4065C169.465 12.4101 169.683 12.457 169.886 12.5446C173.406 14.0146 176.303 16.642 178.086 19.9815C179.869 23.3209 180.429 27.1669 179.67 30.8674C178.911 34.568 176.881 37.8955 173.923 40.2858C170.965 42.6761 167.261 43.9822 163.44 43.9826Z" fill="#353C56"/>
</svg>
