<svg width="17" height="18" viewBox="0 0 17 18" fill="none" xmlns="http://www.w3.org/2000/svg">
<path d="M6.70313 0.644529C5.09766 0.851561 3.62501 1.54297 2.45704 2.64453C0.535165 4.46094 -0.292959 7.15625 0.281259 9.73828C1.17188 13.7344 5.09767 16.2891 9.10548 15.4805C10.0117 15.2969 10.9844 14.8906 11.7695 14.3672C12.0078 14.207 12.2188 14.0586 12.2344 14.0352C12.25 14.0117 12.9336 14.6641 13.8672 15.5937C14.9531 16.6797 15.5195 17.2187 15.6172 17.2578C15.8086 17.3398 16.2031 17.3398 16.3633 17.2578C16.75 17.0625 16.9219 16.6602 16.8008 16.2344C16.7383 16.0156 16.6953 15.9727 15.1133 14.3867C14.1914 13.4609 13.5117 12.75 13.5352 12.7344C13.6172 12.6797 14.1367 11.8672 14.3281 11.4844C15.625 8.90234 15.3359 5.83984 13.5859 3.54297C12.3594 1.93359 10.4922 0.871092 8.48048 0.640623C8.07423 0.597654 7.07032 0.597654 6.70313 0.644529ZM8.57032 2.3789C10.6484 2.71484 12.4453 4.23828 13.1133 6.22656C13.3477 6.93359 13.3984 7.26562 13.3984 8.10156C13.3984 8.74219 13.3867 8.92578 13.3125 9.26172C13.0352 10.543 12.4141 11.6094 11.4453 12.4727C10.7031 13.1328 9.78907 13.5898 8.76173 13.8125C8.22266 13.9297 7.09766 13.9375 6.56641 13.832C4.23438 13.3594 2.4961 11.6875 1.94923 9.39062C1.8047 8.78516 1.78126 7.79297 1.89063 7.14453C2.09376 5.97266 2.60157 4.95703 3.41798 4.10937C4.03126 3.46875 4.66016 3.04297 5.45313 2.72265C6.45313 2.32031 7.4961 2.20703 8.57032 2.3789Z" fill="#333333"/>
</svg>
